<svg id="visual" viewBox="0 0 1920 1080" width="1920" height="1080" xmlns="http://www.w3.org/2000/svg" xmlns:xlink="http://www.w3.org/1999/xlink" version="1.1"><rect x="0" y="0" width="1920" height="1080" fill="#001220"></rect><path d="M0 706L45.7 699.2C91.3 692.3 182.7 678.7 274.2 681C365.7 683.3 457.3 701.7 548.8 698C640.3 694.3 731.7 668.7 823 677.3C914.3 686 1005.7 729 1097 728.2C1188.3 727.3 1279.7 682.7 1371.2 686.3C1462.7 690 1554.3 742 1645.8 746.2C1737.3 750.3 1828.7 706.7 1874.3 684.8L1920 663L1920 1081L1874.3 1081C1828.7 1081 1737.3 1081 1645.8 1081C1554.3 1081 1462.7 1081 1371.2 1081C1279.7 1081 1188.3 1081 1097 1081C1005.7 1081 914.3 1081 823 1081C731.7 1081 640.3 1081 548.8 1081C457.3 1081 365.7 1081 274.2 1081C182.7 1081 91.3 1081 45.7 1081L0 1081Z" fill="#fa7268"></path><path d="M0 813L45.7 798.8C91.3 784.7 182.7 756.3 274.2 743C365.7 729.7 457.3 731.3 548.8 743C640.3 754.7 731.7 776.3 823 785.3C914.3 794.3 1005.7 790.7 1097 798.3C1188.3 806 1279.7 825 1371.2 837.8C1462.7 850.7 1554.3 857.3 1645.8 835.3C1737.3 813.3 1828.7 762.7 1874.3 737.3L1920 712L1920 1081L1874.3 1081C1828.7 1081 1737.3 1081 1645.8 1081C1554.3 1081 1462.7 1081 1371.2 1081C1279.7 1081 1188.3 1081 1097 1081C1005.7 1081 914.3 1081 823 1081C731.7 1081 640.3 1081 548.8 1081C457.3 1081 365.7 1081 274.2 1081C182.7 1081 91.3 1081 45.7 1081L0 1081Z" fill="#ef5f67"></path><path d="M0 833L45.7 833.5C91.3 834 182.7 835 274.2 828.2C365.7 821.3 457.3 806.7 548.8 809.8C640.3 813 731.7 834 823 846.2C914.3 858.3 1005.7 861.7 1097 871.8C1188.3 882 1279.7 899 1371.2 891.7C1462.7 884.3 1554.3 852.7 1645.8 848C1737.3 843.3 1828.7 865.7 1874.3 876.8L1920 888L1920 1081L1874.3 1081C1828.7 1081 1737.3 1081 1645.8 1081C1554.3 1081 1462.7 1081 1371.2 1081C1279.7 1081 1188.3 1081 1097 1081C1005.7 1081 914.3 1081 823 1081C731.7 1081 640.3 1081 548.8 1081C457.3 1081 365.7 1081 274.2 1081C182.7 1081 91.3 1081 45.7 1081L0 1081Z" fill="#e34c67"></path><path d="M0 867L45.7 882.3C91.3 897.7 182.7 928.3 274.2 942.5C365.7 956.7 457.3 954.3 548.8 941.7C640.3 929 731.7 906 823 894.5C914.3 883 1005.7 883 1097 897.8C1188.3 912.7 1279.7 942.3 1371.2 949.8C1462.7 957.3 1554.3 942.7 1645.8 940.7C1737.3 938.7 1828.7 949.3 1874.3 954.7L1920 960L1920 1081L1874.3 1081C1828.7 1081 1737.3 1081 1645.8 1081C1554.3 1081 1462.7 1081 1371.2 1081C1279.7 1081 1188.3 1081 1097 1081C1005.7 1081 914.3 1081 823 1081C731.7 1081 640.3 1081 548.8 1081C457.3 1081 365.7 1081 274.2 1081C182.7 1081 91.3 1081 45.7 1081L0 1081Z" fill="#d53867"></path><path d="M0 945L45.7 947.2C91.3 949.3 182.7 953.7 274.2 967.8C365.7 982 457.3 1006 548.8 1008.3C640.3 1010.7 731.7 991.3 823 986.3C914.3 981.3 1005.7 990.7 1097 989.3C1188.3 988 1279.7 976 1371.2 970.3C1462.7 964.7 1554.3 965.3 1645.8 963.8C1737.3 962.3 1828.7 958.7 1874.3 956.8L1920 955L1920 1081L1874.3 1081C1828.7 1081 1737.3 1081 1645.8 1081C1554.3 1081 1462.7 1081 1371.2 1081C1279.7 1081 1188.3 1081 1097 1081C1005.7 1081 914.3 1081 823 1081C731.7 1081 640.3 1081 548.8 1081C457.3 1081 365.7 1081 274.2 1081C182.7 1081 91.3 1081 45.7 1081L0 1081Z" fill="#c62368"></path></svg>